# xmcd CD database file
#
# Track frame offsets:
#	150
#	11972
#	26027
#	41685
#	54230
#	68042
#	81292
#	98130
#	110992
#	124440
#	137002
#	147447
#	164300
#	175092
#	185652
#	197195
#	205367
#	218415
#	230030
#	248780
#
# Disc length: 3459 seconds
#
# Revision: 20
# Processed by: cddbd v1.5.2PL0 Copyright (c) Steve Scherf et al.
# Submitted via: CDex 2.14
#
DISCID=300d8114
DTITLE=Johnny Cash - The Best Of Johnny Cash
DYEAR=1995
DGENRE=Country
TTITLE0=Ring Of Fire
TTITLE1=Orange Blossom Special
TTITLE2=The Night They Drove Old Dixie Down
TTITLE3=Jackson (with June Carter)
TTITLE4=Don't Take Your Guns To Town
TTITLE5=I Walk The Line
TTITLE6=A Boy Named Sue [Live]
TTITLE7=San Quentin [Live]
TTITLE8=If I Were a Carpenter (with June Carter)
TTITLE9=Folsom Prison Blues [Live]
TTITLE10=Kate
TTITLE11=(Ghost) Riders In The Sky
TTITLE12=Daddy Sang Bass
TTITLE13=Bonanza
TTITLE14=In Them Old Cottonfields Back Home
TTITLE15=Five Feet High And Rising
TTITLE16=Man In Black
TTITLE17=A Thing Called Love (with The Evangel Temple Choir)
TTITLE18=The Ballad Of Ira Hayes
TTITLE19=In The Jailhouse Now
EXTD=YEAR: 1995
EXTT0=
EXTT1=
EXTT2=
EXTT3=
EXTT4=
EXTT5=
EXTT6=
EXTT7=
EXTT8=
EXTT9=
EXTT10=
EXTT11=
EXTT12=
EXTT13=
EXTT14=
EXTT15=
EXTT16=
EXTT17=
EXTT18=
EXTT19=
PLAYORDER=
